# xmcd
#
# Track frame offsets: 
#        150
#        11113
#        22276
#        35689
#        49642
#        69245
#        78246
#        89751
#        97541
#        106340
#        115486
#        132533
#        143141
#        149660
#        166042
#        185235
#        200422
#        211140
#
# Disc length: 3013 seconds
#
# Revision: 1
# Processed by: cddbd v1.5.2PL0 Copyright (c) Steve Scherf et al.
# Submitted via: ExactAudioCopy v0.95b4
#
DISCID=060bc312
DTITLE=Moby Grape - Moby Grape '69 (Remastered and Expanded)
DYEAR=1969
DGENRE=
TTITLE0=Ooh Mama Ooh
TTITLE1=Ain't That A Shame
TTITLE2=I Am Not Willing
TTITLE3=It's A Beautiful Day Today
TTITLE4=Hoochie
TTITLE5=Trucking Man
TTITLE6=If You Can't Learn From My Mistakes
TTITLE7=Captain Nemo
TTITLE8=What's To Choose
TTITLE9=Going Nowhere
TTITLE10=Seeing
TTITLE11=Soul Stew (Outtake - Recorded May 15, 1968)
TTITLE12=If You Can't Learn From My Mistakes (Demo - Recorded May 15, 
TTITLE12=1968)
TTITLE13=You Can Do Anything (Demo - Recorded Nov 6, 1967)
TTITLE14=It's A Beautiful Day Today (Demo - Recorded Apr 22, 1968)
TTITLE15=What's To Choose (Demo - Recorded Nov 6, 1967)
TTITLE16=Big (Demo - Recorded Aug 29, 1968)
TTITLE17=Hoochie (Demo - Recorded Oct 20, 1968)
EXTD=Moby Grape '69 (Remastered and Expanded]\n© 2007 Sundazed! Music, I
EXTD=nc.\n\nOriginally Released January 30, 1969\nRemastered and Expande
EXTD=d CD Edition Released November 6, 2007\n\nAMG EXPERT REVIEW:  Aft
EXTD=er the top-heavy overproduction of Wow and the meandering, aimles
EXTD=s improvisations on Grape Jam, Moby Grape seemed to be getting ba
EXTD=ck into the groove with their fourth album, simply titled Moby Gr
EXTD=ape '69. The liner notes by producer David Rubinson refer to the 
EXTD=promotional hype that soured many fans to the virtues of Moby Gra
EXTD=pe and the excesses that had dogged the group since, and while hi
EXTD=s mea culpa goes a great deal further than it needs to, it does a
EXTD=ccompany an album that clearly found Moby Grape eager to get back
EXTD=to the business of playing straightforward, heartfelt rock and rol
EXTD=l. Moby Grape '69 is concise enough -- most of the songs are unde
EXTD=r three minutes and the whole thing clocks in at a shade under a 
EXTD=half-hour -- and the high points come close to recapturing the el
EXTD=ectric magic of the group's nearly flawless debut, especially the
EXTD=gritty groove of "Hoochie," the doo wop influenced boogie of "Oo
EXTD=h Mama Ooh," the beatific joy of "It's a Beautiful Day Today," th
EXTD=e raucous celebration of one "Trucking Man," and the folk-tinged 
EXTD=wisdom of "If You Can't Learn from My Mistakes." However, even th
EXTD=ough these sessions found guitarists Peter Lewis and Jerry Miller
EXTD=, bassist Bob Mosley and drummer Don Stevenson playing and singin
EXTD=g at the top of their game and writing fine songs, the absence of
EXTD=Skip Spence, who left the band after Wow, robs Moby Grape '69 of
EXTD=a significant share of the energy and drive that was the hallmar
EXTD=k of their finest studio work. It's significant that the album's 
EXTD=most striking cut, the closer "Seeing," was written by Spence dur
EXTD=ing the Wow sessions - it's a harrowing meditation of madness that
EXTD=may well be Spence's greatest song. Despite the obstacles presen
EXTD=ted by Spence's absence, Moby Grape '69 was a genuine step in the
EXTD=right direction for the band, and it's a shame they didn't get t
EXTD=he chance to take greater advantage of their new clarity. [Moby G
EXTD=rape '69 made its debut on compact disc in 2007 with a newly rema
EXTD=stered edition and expanded edition from Sundazed Music.] Moby Gr
EXTD=ape fans who've been wondering when this album would finally get 
EXTD=a digital upgrade will find this disc was well worth the wait.  -
EXTD=Mark Deming\n\n\nAmazon.com Editorial Review\nMoby Grape follow
EXTD=ed the expansiveness of 1968's Wow with an unadorned, back-to-bas
EXTD=ics sound on this, their fourth long-player. Bob Mosley's underst
EXTD=ated vocal makes the ballad "It's a Beautiful Day Today" one of t
EXTD=he great Grape tracks, Peter Lewis' stately "I Am Not Willing" is
EXTD=still a stunner and "Trucking Man" and "Ooh Mama Ooh" show that 
EXTD=nobody could rock a shuffle like guitarist Jerry Miller and compa
EXTD=ny. Most of '69 was recorded as a quartet, with Skip Spence havin
EXTD=g just left the band. His parting gift, "Seeing," is an alternate
EXTD=ly tender and tough tab of psychedelia that prefigures his rightl
EXTD=y touted solo album, Oar.\n\n\nHalf.com Details\nProducer:\tDavid
EXTD=Rubinson\n\nIndustry Reviews\n4 stars out of 5 -- Stellar songwr
EXTD=iting, including the madrigal 'I Am Not Willing', finds the band'
EXTD=s cosmic vision intact.
EXTT0=
EXTT1=
EXTT2=
EXTT3=
EXTT4=
EXTT5=
EXTT6=
EXTT7=
EXTT8=
EXTT9=
EXTT10=
EXTT11=
EXTT12=
EXTT13=
EXTT14=
EXTT15=
EXTT16=
EXTT17=
PLAYORDER=
